<?xml version="1.0" standalone="no"?>
<!DOCTYPE svg PUBLIC "-//W3C//DTD SVG 20010904//EN"
 "http://www.w3.org/TR/2001/REC-SVG-20010904/DTD/svg10.dtd">
<svg version="1.0" xmlns="http://www.w3.org/2000/svg"
 width="723.000000pt" height="723.000000pt" viewBox="0 0 723.000000 723.000000"
 preserveAspectRatio="xMidYMid meet">
<metadata>
Created by potrace 1.11, written by Peter Selinger 2001-2013
</metadata>
<g transform="translate(0.000000,723.000000) scale(0.100000,-0.100000)"
fill="#000000" stroke="none">
<path d="M1425 6513 c-55 -19 -165 -57 -245 -84 -80 -27 -152 -52 -160 -55
-20 -8 -484 -169 -575 -199 -38 -13 -154 -53 -258 -88 l-188 -65 108 -138 c59
-76 113 -146 120 -154 7 -8 179 -229 383 -490 203 -261 388 -497 410 -525 22
-27 102 -129 177 -227 383 -490 472 -604 513 -657 25 -31 105 -133 177 -226
73 -94 233 -298 356 -455 347 -444 494 -633 621 -795 64 -82 127 -163 140
-180 13 -16 73 -93 133 -170 60 -77 210 -268 332 -425 123 -157 284 -365 359
-462 76 -97 140 -177 144 -177 4 -1 7 559 7 1243 l0 1245 -120 153 c-66 84
-133 169 -147 188 -64 82 -685 877 -700 895 -9 11 -46 59 -82 105 -36 47 -70
92 -77 100 -13 16 -334 425 -407 520 -44 57 -547 701 -772 989 -71 91 -133
166 -139 167 -5 1 -55 -13 -110 -33z"/>
<path d="M5605 6523 c-80 -29 -368 -128 -1164 -402 -146 -50 -269 -95 -274
-100 -7 -7 289 -394 896 -1166 43 -55 89 -113 102 -130 310 -399 500 -643 510
-654 11 -11 33 -7 137 29 67 24 179 62 248 86 69 23 251 86 405 139 154 53
387 133 518 178 130 45 237 84 237 87 0 3 -160 210 -356 460 -195 250 -539
690 -762 977 -224 287 -411 522 -417 522 -5 -1 -41 -12 -80 -26z"/>
<path d="M4159 5713 c-4 -45 -2 -4997 2 -5005 6 -9 84 16 594 192 77 27 208
72 290 100 140 48 206 71 519 179 66 23 122 44 125 47 3 3 6 575 6 1270 l0
1265 -158 202 c-88 111 -178 227 -201 257 -23 30 -175 224 -336 430 -161 206
-316 404 -344 440 -262 337 -473 607 -483 618 -7 7 -13 10 -14 5z"/>
<path d="M5 3211 c0 -1375 3 -2502 7 -2506 3 -4 84 20 180 53 95 33 200 69
233 81 33 11 107 36 165 57 149 51 693 239 833 286 100 34 117 43 118 61 0 12
1 581 1 1264 l1 1242 -52 68 c-29 37 -111 142 -182 233 -572 732 -1078 1380
-1203 1542 -50 64 -93 117 -96 117 -3 1 -5 -1124 -5 -2498z"/>
</g>
</svg>
