<svg id="Layer_2" data-name="Layer 2" xmlns="http://www.w3.org/2000/svg" viewBox="0 0 722.06 585.29"><title>personal_logo_1</title><polygon points="721.24 195.91 568.64 0.59 416.04 53.13 568.62 248.42 721.24 195.91"/><path d="M3033.05,1740.08L2879.82,1544l153.6-52.89,153.25,196.15-0.66.23Zm-151.58-195.64L3033.4,1738.9,3185,1686.73l-151.95-194.48Z" transform="translate(-2464.61 -1491.07)"/><polygon points="0.82 584.59 153.42 532.04 153.42 280.18 0.82 84.86 0.82 584.59"/><path d="M2464.93,2076.35V1574.48l153.6,196.6v252.39Zm1-499V2075l151.6-52.2V1771.42Z" transform="translate(-2464.61 -1491.07)"/><polygon points="416.04 584.59 568.64 532.04 568.64 279.2 416.04 83.88 416.04 584.59"/><path d="M2880.15,2076.35V1573.5l153.6,196.6v253.37Zm1-500V2075l151.6-52.2V1770.44Z" transform="translate(-2464.61 -1491.07)"/><polygon points="0.82 53.13 396.96 560.16 396.96 312.3 153.42 0.59 0.82 53.13"/><path d="M2862.06,2052.68l-0.89-1.14L2464.61,1544l153.6-52.89,243.86,312.13v249.48Zm-395.81-508.24,394.81,505.33V1803.54l-243.21-311.3Z" transform="translate(-2464.61 -1491.07)"/></svg>