<?xml version="1.0" encoding="utf-8"?>
<!-- Generator: Adobe Illustrator 19.1.0, SVG Export Plug-In . SVG Version: 6.00 Build 0)  -->
<svg version="1.1" xmlns="http://www.w3.org/2000/svg" xmlns:xlink="http://www.w3.org/1999/xlink" x="0px" y="0px"
	 viewBox="0 0 112.5 112.5" style="enable-background:new 0 0 112.5 112.5;" xml:space="preserve">
<style type="text/css">
	.st0{fill:#414042;}
	.st1{fill:#FFFFFF;}
</style>
<g id="Layer_1">
	<circle class="st0" cx="56.6" cy="55.9" r="54.9"/>
	<path class="st1" d="M94.9,80.3c-2.1,1.1-6.1,2.8-9.6,2.8c-1.7,0-3.4-0.5-5-1.6c-8.9-5.9-5.8-13,0.2-24c2.6-4.7,5.2-9.5,6.4-14.4
		c1.3-5.3,2.4-13.1-2.2-19c-2.2-2.8-5.5-4.9-9.8-6.3c-4.5-1.5-10.3-2.3-17.3-2.4l-0.5,0l-1.8,0c-7,0.1-12.8,0.9-17.3,2.4
		c-4.3,1.4-7.6,3.6-9.8,6.3c-4.6,5.9-3.5,13.6-2.2,19c1.2,5,3.8,9.8,6.4,14.4c6.1,11,9.1,18.1,0.2,24c-1.6,1.1-3.2,1.6-5,1.6
		c-3.5,0-7.5-1.7-9.6-2.8l0.5,0.9c4.4,6.6,10,10.1,16.3,10.1c2.8,0,5.7-0.7,8.6-2c3.1-1.4,5.9-3.9,7.8-7.2c1.9-3.2,2.6-6.7,2.1-9.8
		c-0.7-2.8-2.1-6.5-3.8-10.9C45.4,50.1,39.4,34.6,44.6,27c2.2-3.2,6.1-4.8,12-4.8c5.9,0,9.8,1.6,12,4.8c5.2,7.6-0.8,23-5.2,34.3
		c-1.7,4.3-3.1,8.1-3.8,10.9c-0.5,3.1,0.2,6.6,2.1,9.9c1.9,3.2,4.6,5.8,7.8,7.2c3,1.3,5.9,2,8.6,2c6.3,0,11.9-3.5,16.3-10.1
		L94.9,80.3z"/>
</g>
<g id="Layer_2">
</g>
</svg>
